Coordinates
version=1
nRows=8
nColumns=36
inDegrees=yes

Units are S.I. units (second, meters, Newtons, ...)
If the header above contains a line with 'inDegrees', this indicates whether rotational values are in degrees (yes) or radians (no).

endheader
time	pelvis_tilt	pelvis_list	pelvis_rotation	pelvis_tx	pelvis_ty	pelvis_tz	hip_flexion_r	hip_adduction_r	hip_rotation_r	knee_angle_r	knee_angle_r_beta	ankle_angle_r	subtalar_angle_r	mtp_angle_r	hip_flexion_l	hip_adduction_l	hip_rotation_l	knee_angle_l	knee_angle_l_beta	ankle_angle_l	subtalar_angle_l	mtp_angle_l	lumbar_extension	lumbar_bending	lumbar_rotation	arm_flex_r	arm_add_r	arm_rot_r	elbow_flex_r	pro_sup_r	arm_flex_l	arm_add_l	arm_rot_l	elbow_flex_l	pro_sup_l
      0.00000000	      2.41001872	      3.04693456	     90.19947126	     -0.20279776	      0.92697700	      1.07264163	     23.88214530	      4.03202125	     -7.06558100	     23.71511508	      0.41390684	     -5.04163938	     -6.33208167	     -7.60880091	    -14.58778546	     -3.45836686	    -10.57229977	     35.49184805	      0.61944961	    -13.15728363	      0.85276605	     -7.60880091	    -15.27166169	      4.38097200	     -4.30206208	     -6.21815556	     -4.26048700	    -35.95544456	     52.84572006	     98.52503956	     18.43637189	     -4.96948693	    -24.56702728	     47.55886457	     90.13456705
      0.01000000	      3.08418238	      3.31055720	     90.11071675	     -0.20122847	      0.92731565	      1.05809639	     23.39083861	      5.17054663	     -5.80745509	     25.26180296	      0.44090164	     -3.50271705	     -7.74257413	     -7.58446354	    -13.57764375	     -4.65383928	    -10.22818440	     38.56422401	      0.67307268	    -17.27957806	      0.24028039	     -7.58446354	    -15.38105860	      5.09064337	     -3.88355831	     -5.75197618	     -4.24667620	    -36.68732750	     51.85477790	    103.84550916	     18.12116388	     -4.55350187	    -25.41068745	     47.43568722	     92.39077749
      0.02000000	      3.50059188	      3.63391230	     90.06230813	     -0.20035910	      0.92777598	      1.04406070	     22.85074538	      5.73874792	     -5.45367903	     26.81949444	      0.46808848	     -1.73387488	     -8.33743747	     -7.58029989	    -12.48765495	     -5.38261673	     -9.44062133	     41.62596040	      0.72651006	    -20.38904827	      0.15037099	     -7.58029989	    -15.69798261	      5.53916971	     -3.32473022	     -5.66418571	     -4.51202403	    -36.50591338	     51.37014204	    102.73217744	     17.88060591	     -4.14415883	    -25.42358202	     47.52713325	     91.61711413
      0.03000000	      4.32150048	      3.87899616	     90.27880871	     -0.19961520	      0.92874824	      1.03022196	     21.96509312	      6.68679492	     -5.37658407	     27.41149297	      0.47842081	     -0.85029675	     -9.07132931	     -7.57691678	    -11.06456839	     -6.69694826	     -8.72845156	     44.90356166	      0.78371500	    -23.74453278	     -1.71658687	     -7.57691678	    -15.85519492	      6.49133350	     -3.06674140	     -5.37071954	     -4.75607491	    -36.40329805	     50.71991330	    102.56121149	     17.59040850	     -3.80310178	    -25.68535585	     47.19596485	     91.39480182
      0.04000000	      4.65783422	      3.91396387	     90.55733780	     -0.19969798	      0.92960012	      1.01688171	     21.31279810	      7.07760901	     -5.20398804	     28.03171157	      0.48924566	      0.33599545	     -9.59716184	     -7.57351040	     -9.32506869	     -7.31753326	     -7.69951342	     48.08660758	      0.83926963	    -26.85243670	     -4.49479651	     -7.57351040	    -15.84233436	      6.96519504	     -2.85324901	     -5.17517077	     -4.99386568	    -36.27069992	     50.28371690	    102.52828961	     17.32350628	     -3.31978652	    -25.91778674	     46.89395959	     91.19657752
      0.05000000	      4.90615000	      3.97926653	     90.90713086	     -0.19999469	      0.93118932	      1.00375749	     20.46033403	      7.25317408	     -5.49668731	     28.28760058	      0.49371177	      1.46496355	     -9.48295583	     -7.57008083	     -7.41855922	     -7.82639374	     -6.81769682	     51.27450468	      0.89490893	    -30.17606235	     -7.56809851	     -7.57008083	    -15.85800460	      7.33699525	     -2.69258746	     -4.80162830	     -5.14066823	    -36.43422215	     49.61208811	    103.20607605	     17.13878334	     -2.78056653	    -26.40444663	     46.33433002	     91.38721934
      0.06000000	      5.17211896	      4.22877770	     91.11141407	     -0.19994128	      0.93363580	      0.99092598	     19.09342139	      7.52593100	     -5.82135003	     27.89428428	      0.48684710	      2.24462761	     -9.02420968	     -7.56896707	     -5.76905022	     -8.43998796	     -6.32575699	     54.15292021	      0.94514676	    -31.83061738	     -9.59447734	     -7.56896707	    -16.17318017	      7.65455312	     -2.31958927	     -4.42005547	     -5.29200323	    -36.41541201	     49.09370234	    103.56251975	     16.99235633	     -2.40531606	    -26.52971620	     45.73314838	     91.50941271
      0.07000000	      5.33819936	      4.24129056	     91.56902821	     -0.20010786	      0.93607046	      0.97846685	     17.90471682	      7.64816629	     -6.24681426	     27.28578440	      0.47622678	      3.00683570	     -8.52618399	     -7.56752582	     -3.76518550	     -8.93433359	     -5.58050368	     56.81044937	      0.99152939	    -32.35441871	    -12.98146899	     -7.56752582	    -16.18140712	      7.88518563	     -2.23861301	     -4.01209982	     -5.36905272	    -36.49754301	     48.53499129	    103.97030144	     16.77435502	     -2.15268913	    -26.64563191	     45.18849271	     91.66001637
